<svg xmlns="http://www.w3.org/2000/svg" width="360" height="360" data-uid="o_fajf73dn1_7"><style>@media (color-gamut:p3){.path{fill:oklch(64.61% .22 41.12)}}</style><g fill="#ea580c" data-uid="o_fajf73dn1_8" class="path"><path d="M176.726 40.438h8.08v59.819h-8.08z" class="st0" data-height="49.55" data-type="rect" data-uid="o_fajf73dn1_9" data-width="6.5" data-x="184.89" data-y="64.55"/><path d="M176.726 10.438h8.08v20.21h-8.08z" class="st0" data-height="16.74" data-type="rect" data-uid="o_fajf73dn1_10" data-width="6.5" data-x="184.89" data-y="39.7"/><path d="m206.611 103.992 21.078-56.223 7.58 2.68-21.076 56.223z" class="st0" data-height="6.49" data-type="rect" data-uid="o_fajf73dn1_11" data-width="49.56" data-x="195.67" data-y="91.77"/><path d="m231.12 38.57 7.114-18.992 7.583 2.68-7.113 18.991z" class="st0" data-height="6.49" data-type="rect" data-uid="o_fajf73dn1_12" data-width="16.74" data-x="226.19" data-y="53.01"/><path d="m233.383 117.4 39.593-45.81 6.18 5.036-39.593 45.812z" class="st0" data-height="6.49" data-type="rect" data-uid="o_fajf73dn1_13" data-width="49.54" data-x="224.1" data-y="108.18"/><path d="m279.46 64.087 13.378-15.48 6.181 5.036-13.38 15.48z" class="st0" data-height="6.49" data-type="rect" data-uid="o_fajf73dn1_14" data-width="16.74" data-x="267.02" data-y="76.58"/><path d="m253.802 138.93 53.331-29.932 4.037 6.784-53.332 29.932z" class="st0" data-height="6.49" data-type="rect" data-uid="o_fajf73dn1_15" data-width="49.55" data-x="245.19" data-y="133.31"/><path d="m315.882 104.151 18.023-10.102 4.034 6.786-18.025 10.102z" class="st0" data-height="6.49" data-type="rect" data-uid="o_fajf73dn1_16" data-width="16.74" data-x="297.32" data-y="112.69"/><path d="m265.394 165.938 60.663-10.385 1.401 7.715-60.663 10.385z" class="st0" data-height="6.49" data-type="rect" data-uid="o_fajf73dn1_17" data-width="49.55" data-x="256.41" data-y="164.15"/><path d="m335.981 153.862 20.495-3.509 1.4 7.716-20.494 3.508z" class="st0" data-height="6.49" data-type="rect" data-uid="o_fajf73dn1_18" data-width="16.74" data-x="313.44" data-y="156.99"/><path d="m265.398 202.875 1.4-7.716 60.662 10.384-1.4 7.717z" class="st0" data-height="49.55" data-type="rect" data-uid="o_fajf73dn1_19" data-width="6.49" data-x="277.94" data-y="175.44"/><path d="m335.974 214.966 1.4-7.716 20.494 3.509-1.4 7.715z" class="st0" data-height="16.74" data-type="rect" data-uid="o_fajf73dn1_20" data-width="6.49" data-x="318.56" data-y="199"/><path d="m253.787 229.857 4.034-6.785 53.344 29.91-4.034 6.784z" class="st0" data-height="49.55" data-type="rect" data-uid="o_fajf73dn1_21" data-width="6.49" data-x="266.72" data-y="206.27"/><path d="m315.865 264.682 4.036-6.784 18.02 10.109-4.036 6.785z" class="st0" data-height="16.74" data-type="rect" data-uid="o_fajf73dn1_22" data-width="6.49" data-x="302.44" data-y="243.3"/><path d="m279.444 304.68 6.182-5.034 13.373 15.482-6.18 5.034z" class="st0" data-height="16.74" data-type="rect" data-uid="o_fajf73dn1_23" data-width="6.49" data-x="272.14" data-y="279.41"/><path d="m62.519 315.15 13.376-15.48 6.18 5.036-13.377 15.48z" class="st0" data-height="6.49" data-type="rect" data-uid="o_fajf73dn1_24" data-width="16.74" data-x="92.52" data-y="284.54"/><path d="m50.352 252.977 53.344-29.91 4.035 6.785-53.344 29.91z" class="st0" data-height="6.49" data-type="rect" data-uid="o_fajf73dn1_25" data-width="49.55" data-x="81.54" data-y="227.79"/><path d="m23.6 267.989 18.02-10.108 4.036 6.784-18.02 10.109z" class="st0" data-height="6.49" data-type="rect" data-uid="o_fajf73dn1_26" data-width="16.74" data-x="62.22" data-y="248.42"/><path d="m34.06 205.537 60.663-10.384 1.4 7.715-60.663 10.385z" class="st0" data-height="6.49" data-type="rect" data-uid="o_fajf73dn1_27" data-width="49.55" data-x="70.32" data-y="196.96"/><path d="m3.638 210.75 20.494-3.506 1.4 7.716-20.495 3.507z" class="st0" data-height="6.49" data-type="rect" data-uid="o_fajf73dn1_28" data-width="16.74" data-x="46.1" data-y="204.13"/><path d="m34.055 163.26 1.401-7.717 60.663 10.385-1.401 7.717z" class="st0" data-height="49.55" data-type="rect" data-uid="o_fajf73dn1_29" data-width="6.49" data-x="91.85" data-y="142.62"/><path d="m3.63 158.056 1.4-7.715 20.493 3.505-1.4 7.717z" class="st0" data-height="16.74" data-type="rect" data-uid="o_fajf73dn1_30" data-width="6.49" data-x="51.22" data-y="151.86"/><path d="m50.347 115.816 4.034-6.785 53.344 29.91-4.034 6.784z" class="st0" data-height="49.55" data-type="rect" data-uid="o_fajf73dn1_31" data-width="6.49" data-x="103.07" data-y="111.78"/><path d="m23.598 100.814 4.033-6.784 18.024 10.102-4.034 6.785z" class="st0" data-height="16.74" data-type="rect" data-uid="o_fajf73dn1_32" data-width="6.49" data-x="67.34" data-y="107.56"/><path d="m82.368 76.64 6.18-5.036 39.596 45.82-6.18 5.037z" class="st0" data-height="49.55" data-type="rect" data-uid="o_fajf73dn1_33" data-width="6.49" data-x="124.16" data-y="86.65"/><path d="m62.524 53.649 6.183-5.034L82.08 64.099l-6.181 5.034z" class="st0" data-height="16.74" data-type="rect" data-uid="o_fajf73dn1_34" data-width="6.49" data-x="97.65" data-y="71.45"/><path d="m126.277 50.458 7.583-2.679 21.058 56.23-7.583 2.677z" class="st0" data-height="49.56" data-type="rect" data-uid="o_fajf73dn1_35" data-width="6.49" data-x="152.58" data-y="70.24"/><path d="m115.706 22.27 7.581-2.68 7.12 18.99-7.582 2.682z" class="st0" data-height="16.74" data-type="rect" data-uid="o_fajf73dn1_36" data-width="6.49" data-x="138.47" data-y="47.88"/><path d="M242.8 88.607 273.767 36.9l-6.987-3.936-30.967 51.706z" class="st0" data-type="polygon" data-uid="o_fajf73dn1_37"/><path d="m220.286 110.603 6.987 3.935L237.74 97.07l-6.986-3.936z" class="st0" data-type="polygon" data-uid="o_fajf73dn1_38"/><path d="m267.634 108.96 47.308-38.313 5.175 6.026-47.307 38.312z" class="st0" data-height="6.5" data-type="rect" data-uid="o_fajf73dn1_39" data-width="49.55" data-x="254.34" data-y="104.7"/><path d="m243.889 128.158 15.976-12.95 5.177 6.024-15.975 12.95z" class="st0" data-height="6.5" data-type="rect" data-uid="o_fajf73dn1_40" data-width="16.74" data-x="239.06" data-y="131.11"/><path d="m288.973 142.36 57.952-20.285 2.74 7.382-57.952 20.286z" class="st0" data-height="6.5" data-type="rect" data-uid="o_fajf73dn1_41" data-width="49.55" data-x="274.8" data-y="140.39"/><path d="m259.89 152.54 19.576-6.856 2.74 7.382-19.575 6.855z" class="st0" data-height="6.5" data-type="rect" data-uid="o_fajf73dn1_42" data-width="16.74" data-x="252.4" data-y="154.37"/><path d="m297.212 188.654.03-7.847 61.6.236-.031 7.847z" class="st0" data-height="49.55" data-type="rect" data-uid="o_fajf73dn1_43" data-width="6.5" data-x="303.34" data-y="159.4"/><path d="m266.312 188.584.025-7.847 20.81.06-.025 7.847z" class="st0" data-height="16.74" data-type="rect" data-uid="o_fajf73dn1_44" data-width="6.5" data-x="262.09" data-y="175.67"/><path d="m288.67 227.11 2.786-7.366 57.817 20.632-2.787 7.364z" class="st0" data-height="49.55" data-type="rect" data-uid="o_fajf73dn1_45" data-width="6.5" data-x="296.07" data-y="199.89"/><path d="m259.668 216.75 2.787-7.364 19.533 6.97-2.787 7.364z" class="st0" data-height="16.74" data-type="rect" data-uid="o_fajf73dn1_46" data-width="6.5" data-x="257.35" data-y="202.06"/><path d="m267.13 260.368 5.206-5.987 47.061 38.595-5.205 5.986z" class="st0" data-height="49.55" data-type="rect" data-uid="o_fajf73dn1_47" data-width="6.49" data-x="275.39" data-y="235.45"/><path d="m41.435 292.131 47.314-38.308 5.174 6.028-47.314 38.308z" class="st0" data-height="6.5" data-type="rect" data-uid="o_fajf73dn1_48" data-width="49.55" data-x="72.39" data-y="256.41"/><path d="m96.484 247.527 15.966-12.941 5.178 6.024-15.966 12.943z" class="st0" data-height="6.5" data-type="rect" data-uid="o_fajf73dn1_49" data-width="16.73" data-x="120.48" data-y="229.99"/><path d="m11.9 239.354 57.953-20.285 2.74 7.382-57.952 20.284z" class="st0" data-height="6.5" data-type="rect" data-uid="o_fajf73dn1_50" data-width="49.55" data-x="51.93" data-y="220.72"/><path d="m79.324 215.736 19.586-6.865 2.743 7.38-19.587 6.866z" class="st0" data-height="6.5" data-type="rect" data-uid="o_fajf73dn1_51" data-width="16.75" data-x="107.14" data-y="206.73"/><path d="m2.695 187.785.025-7.847 61.599.185-.025 7.847z" class="st0" data-height="49.55" data-type="rect" data-uid="o_fajf73dn1_52" data-width="6.5" data-x="66.44" data-y="158.66"/><path d="m74.374 188.006.024-7.847 20.81.06-.024 7.847z" class="st0" data-height="16.74" data-type="rect" data-uid="o_fajf73dn1_53" data-width="6.5" data-x="107.69" data-y="175.19"/><path d="m12.24 128.457 2.789-7.366 57.817 20.638-2.789 7.364z" class="st0" data-height="49.55" data-type="rect" data-uid="o_fajf73dn1_54" data-width="6.5" data-x="73.7" data-y="118.17"/><path d="m79.531 152.453 2.788-7.366 19.535 6.97-2.788 7.366z" class="st0" data-height="16.74" data-type="rect" data-uid="o_fajf73dn1_55" data-width="6.5" data-x="112.43" data-y="148.8"/><path d="m42.12 75.846 5.207-5.985 47.061 38.595-5.206 5.986z" class="st0" data-height="49.55" data-type="rect" data-uid="o_fajf73dn1_56" data-width="6.49" data-x="94.39" data-y="82.61"/><path d="m96.89 120.748 5.205-5.988 15.902 13.035-5.204 5.988z" class="st0" data-height="16.74" data-type="rect" data-uid="o_fajf73dn1_57" data-width="6.49" data-x="125.91" data-y="125.63"/><path d="m88.712 36.346 7.012-3.903 30.631 51.899-7.01 3.902z" class="st0" data-height="49.55" data-type="rect" data-uid="o_fajf73dn1_58" data-width="6.5" data-x="125.98" data-y="56.26"/><path d="m134.707 114.273 6.999-3.912-10.343-17.54-7 3.91z" class="st0" data-type="polygon" data-uid="o_fajf73dn1_59"/><path d="m146.412 14.685 7.95-1.337 10.515 58.94-7.95 1.337z" class="st0" data-height="49.55" data-type="rect" data-uid="o_fajf73dn1_60" data-width="6.49" data-x="164.69" data-y="42.31"/><path d="m158.636 83.264 7.963-1.334 3.538 19.913-7.964 1.334z" class="st0" data-height="16.74" data-type="rect" data-uid="o_fajf73dn1_61" data-width="6.5" data-x="171.72" data-y="99.36"/><path d="m197.406 72.414 10.829-58.885 7.955 1.38-10.83 58.885z" class="st0" data-height="6.5" data-type="rect" data-uid="o_fajf73dn1_62" data-width="49.55" data-x="184.3" data-y="63.97"/><path d="m191.923 101.947 3.659-19.894 7.955 1.38-3.659 19.894z" class="st0" data-height="6.5" data-type="rect" data-uid="o_fajf73dn1_63" data-width="16.74" data-x="193.41" data-y="104.57"/><path d="m245.659 242.747 13.787 11.312 5.209-5.988-15.9-13.038-.386.434a213.715 213.715 0 0 1 5.57-12.76 199.283 199.283 0 0 1 3.741-7.449c2.052-3.875 2.425-8.197 1.343-12.084-1.07-3.888-3.568-7.365-7.272-9.538-.324-.193-.672-.35-1.02-.519a6.498 6.498 0 0 0-.41-.205 14.47 14.47 0 0 0-1.007-.398 11.26 11.26 0 0 0-.684-.23c-.298-.096-.609-.18-.92-.265a15.184 15.184 0 0 0-1.069-.218c-.211-.036-.423-.084-.646-.108a13.64 13.64 0 0 0-1.716-.109c-.074 0-.149-.012-.224-.012-.895 0-1.777.085-2.66.23a.748.748 0 0 1-.162.024c-.422.072-.833.169-1.255.277-.075.024-.15.024-.224.049-.037.012-.062.024-.1.036a13.675 13.28 0 0 0-1.367.458c-.186.073-.373.157-.572.23a19.226 18.67 0 0 0-1.69.82 11.29 11.29 0 0 0-.809.472c-.21.132-.422.277-.634.422-.236.17-.472.338-.708.52-.211.168-.435.337-.647.506-.298.254-.596.52-.882.785-.125.109-.236.23-.348.35a18.768 18.768 0 0 0-2.076 2.523l-.075.109c-.31.459-.597.93-.87 1.424-.299.568-.584 1.16-.895 1.739a288.363 288.363 0 0 0-5.37 10.744v-60.772c0-8.644-7.248-15.682-16.15-15.682-1.093 0-2.138.133-3.17.338l-.161.036c-1.69.35-3.295.918-4.749 1.739v-3.827c0-8.644-7.248-15.682-16.149-15.682-8.9 0-16.148 7.038-16.148 15.682v3.827c-1.455-.821-3.059-1.389-4.75-1.739a15.673 15.22 0 0 0-3.331-.374c-8.901 0-16.149 7.038-16.149 15.682v21.778a16.033 15.57 0 0 0-8.08-2.112c-8.901 0-16.149 7.038-16.149 15.682v63.368L82.357 292.17l6.179 5.034 29.19-33.79v28.756c0 31.436 26.342 57.018 58.714 57.018 30.06 0 55.122-21.803 58.416-50.752l.1-1.292h.05a184.41 184.41 0 0 1 1.292-15.09l.112-.942c.05-.41.124-.81.174-1.22a190.281 190.281 0 0 1 3.928-20.209l32.422 37.521 6.179-5.034-36.04-41.71a332.242 332.242 0 0 1 2.586-7.714zm-69.194 98.607c-27.934 0-50.647-22.056-50.647-49.17V187.865c0-4.322 3.618-7.847 8.08-7.847 4.451 0 8.081 3.513 8.081 7.847v54.857h8.08V152.53c0-4.322 3.618-7.847 8.081-7.847 4.45 0 8.08 3.513 8.08 7.847v82.358h8.081v-99.79c0-4.322 3.618-7.847 8.081-7.847 4.45 0 8.08 3.513 8.08 7.847v99.79h8.081V152.53c0-4.322 3.618-7.847 8.08-7.847 4.451 0 8.081 3.513 8.081 7.847v79.653a248.546 248.546 0 0 0-7.135 21.61c-1.666 4.841-3.556 11.626-4.389 19.292-.783 14.366-7.82 24.072-20.922 28.84-11.848 4.274-25.125-1.545-29.563-13.074a22.837 22.177 0 0 1 .597-17.058c2.524-5.384 7.036-9.489 12.718-11.59 7.744-2.692 16.347 1.171 19.231 8.668 2.735 7.075-.46 14.946-7.397 18.302a21.15 21.15 0 0 1-1.392.58c-.137.06-.248.096-.31.12-3.519 1.268-7.46-.47-8.777-3.875-1.318-3.429.472-7.243 3.978-8.523l-2.822-7.352c-7.695 2.8-11.599 11.143-8.727 18.615 2.237 5.795 7.919 9.38 13.96 9.38 1.74 0 3.519-.301 5.26-.929.049-.024.123-.048.21-.084v.012c.1-.037.187-.085.286-.121.771-.302 2.076-.833 2.362-.978l-.037-.06a23.123 22.455 0 0 0 10.952-27.84c-4.438-11.504-17.628-17.408-29.488-13.315v-.012c-.05.012-.087.036-.136.06-.075.024-.15.049-.236.073l.012.024c-7.596 2.861-13.638 8.378-17.019 15.597-3.431 7.328-3.717 15.525-.808 23.07 4.674 12.097 16.534 19.582 29.115 19.582a31.68 31.68 0 0 0 10.865-1.92c14.508-5.275 23.26-15.814 25.572-30.603l.025.012s3.63-14.354 5.57-21.706l.111.048c1.902-8.052 4.289-15.983 7.086-23.77.535-1.485 1.07-2.958 1.629-4.419.385-.99.783-1.98 1.168-2.97.585-1.472 1.194-2.92 1.803-4.37.447-1.05.895-2.1 1.367-3.15a283.583 283.583 0 0 1 1.778-3.876c.522-1.11 1.032-2.233 1.566-3.332.87-1.786 1.778-3.549 2.686-5.287.236-.447.447-.894.683-1.34.15-.29.324-.58.498-.845 1.964-2.91 5.507-4.503 8.553-4.105.348.06.708.12 1.044.23.025.011.037.011.062.023.435.145.845.326 1.23.556 2.823 1.666 4.265 4.937 3.93 8.16a8.79 8.79 0 0 1-.995 3.152v.012a196.451 196.451 0 0 0-4.028 8.088c-11.338 23.722-17.827 48.7-19.331 74.402-.05.724-.1 1.437-.137 2.161-.062.314-.1.664-.1 1.038-2.71 25.038-24.378 43.968-50.397 43.968z" class="st0" data-uid="o_fajf73dn1_64"/></g></svg>